# xmcd CD database file
#
# Track frame offsets:
#	150
#	21898
#	45702
#	64311
#	85455
#	103002
#	123606
#	141894
#	160608
#	178889
#	200583
#	224579
#
# Disc length: 3284 seconds
#
# Revision: 6
# Processed by: cddbd v1.5.1PL2 Copyright (c) Steve Scherf et al.
# Submitted via: CDex 1.51
#
DISCID=b80cd20c
DTITLE=PRINCESS PRINCESS - Bee-Beep
DYEAR=1993
DGENRE=Rock
TTITLE0=GUITAR MAN
TTITLE1=MELODY MELODY
TTITLE2=彼氏がほしい
TTITLE3=Bee-Beep (プリプリ サミット)
TTITLE4=うちに帰ろう
TTITLE5=REGRET
TTITLE6=海の見える丘
TTITLE7=POWER
TTITLE8=EYEWITNESS
TTITLE9=WEDDING
TTITLE10=SWEET VALENTINE
TTITLE11=VOICE
EXTD=YEAR: 1993
EXTT0=
EXTT1=
EXTT2=
EXTT3=
EXTT4=
EXTT5=
EXTT6=
EXTT7=
EXTT8=
EXTT9=
EXTT10=
EXTT11=
PLAYORDER=
